<?xml version="1.0" encoding="UTF-8" standalone="no"?>
<!DOCTYPE svg PUBLIC "-//W3C//DTD SVG 1.1//EN" "http://www.w3.org/Graphics/SVG/1.1/DTD/svg11.dtd">
<svg xmlns="http://www.w3.org/2000/svg" version="1.1" viewBox="0.00 0.00 500.00 169.00">
<g stroke-width="2.00" fill="none" stroke-linecap="butt">
<path stroke="#862d5f" vector-effect="non-scaling-stroke" d="
  M 65.46 23.32
  Q 64.31 24.26 63.05 25.05
  C 58.79 27.75 56.59 31.44 57.11 36.75
  Q 57.77 43.48 63.03 48.72
  Q 68.42 54.09 75.11 58.42"
/>
<path stroke="#862d5f" vector-effect="non-scaling-stroke" d="
  M 109.33 86.09
  Q 110.53 89.02 110.18 92.32
  A 0.78 0.78 0.0 0 0 111.23 93.14
  Q 116.79 91.06 121.64 88.18
  Q 129.55 83.48 132.94 75.62"
/>
<path stroke="#995d4d" vector-effect="non-scaling-stroke" d="
  M 132.94 75.62
  Q 133.55 75.72 134.47 76.49
  Q 140.84 81.77 147.28 86.98
  C 150.48 89.57 155.57 91.98 159.47 89.69
  Q 163.64 87.24 165.72 80.75"
/>
<path stroke="#8c2b57" vector-effect="non-scaling-stroke" d="
  M 127.04 109.18
  L 112.38 97.08
  Q 110.60 95.61 110.64 97.91
  L 111.59 148.21"
/>
<path stroke="#3c619d" vector-effect="non-scaling-stroke" d="
  M 109.38 148.22
  Q 109.40 136.34 109.43 124.49
  Q 109.43 123.31 109.04 121.57
  Q 108.71 120.11 108.65 118.59
  Q 108.64 118.08 108.26 117.74
  Q 102.01 112.01 93.00 104.32
  Q 87.72 99.81 81.98 95.97
  Q 79.00 93.97 69.66 86.12
  C 65.23 82.40 58.89 77.35 53.57 81.94
  Q 52.43 82.93 51.29 83.95"
/>
<path stroke="#de5e3d" vector-effect="non-scaling-stroke" d="
  M 132.94 75.62
  C 132.59 75.17 132.33 74.74 131.89 74.43
  Q 121.51 67.05 113.15 58.46
  Q 111.68 56.95 110.69 54.39
  Q 110.08 52.78 110.10 50.51
  Q 110.13 48.12 109.84 45.77"
/>
</g>
<path fill="#412c6f" d="
  M 65.46 23.32
  Q 64.31 24.26 63.05 25.05
  C 58.79 27.75 56.59 31.44 57.11 36.75
  Q 57.77 43.48 63.03 48.72
  Q 68.42 54.09 75.11 58.42
  Q 77.08 61.32 78.00 62.00
  Q 84.34 66.66 90.47 71.41
  Q 92.24 72.79 93.83 74.31
  C 95.52 75.94 97.55 76.78 99.35 78.23
  Q 104.28 82.17 109.33 86.09
  Q 110.53 89.02 110.18 92.32
  A 0.78 0.78 0.0 0 0 111.23 93.14
  Q 116.79 91.06 121.64 88.18
  Q 129.55 83.48 132.94 75.62
  Q 133.55 75.72 134.47 76.49
  Q 140.84 81.77 147.28 86.98
  C 150.48 89.57 155.57 91.98 159.47 89.69
  Q 163.64 87.24 165.72 80.75
  Q 165.94 128.74 165.67 142.63
  C 165.60 146.20 162.41 148.44 158.82 148.39
  Q 153.30 148.32 148.82 148.25
  Q 148.26 148.24 148.25 147.68
  Q 148.11 140.83 148.26 133.51
  C 148.40 126.85 145.15 121.63 139.69 118.05
  Q 137.52 116.62 135.44 114.81
  Q 131.62 111.48 127.04 109.18
  L 112.38 97.08
  Q 110.60 95.61 110.64 97.91
  L 111.59 148.21
  L 109.38 148.22
  Q 109.40 136.34 109.43 124.49
  Q 109.43 123.31 109.04 121.57
  Q 108.71 120.11 108.65 118.59
  Q 108.64 118.08 108.26 117.74
  Q 102.01 112.01 93.00 104.32
  Q 87.72 99.81 81.98 95.97
  Q 79.00 93.97 69.66 86.12
  C 65.23 82.40 58.89 77.35 53.57 81.94
  Q 52.43 82.93 51.29 83.95
  Q 51.23 57.23 51.25 30.49
  Q 51.25 27.09 52.06 25.66
  Q 53.50 23.10 56.98 23.22
  Q 63.22 23.44 65.46 23.32
  Z"
/>
<path fill="#cb2d4f" d="
  M 65.46 23.32
  Q 67.97 23.20 70.37 24.64
  C 71.90 25.55 72.30 26.46 72.28 28.32
  Q 72.19 35.80 72.52 47.50
  Q 72.68 53.31 75.11 58.42
  Q 68.42 54.09 63.03 48.72
  Q 57.77 43.48 57.11 36.75
  C 56.59 31.44 58.79 27.75 63.05 25.05
  Q 64.31 24.26 65.46 23.32
  Z"
/>
<path fill="#f08e2a" d="
  M 165.72 80.75
  Q 163.64 87.24 159.47 89.69
  C 155.57 91.98 150.48 89.57 147.28 86.98
  Q 140.84 81.77 134.47 76.49
  Q 133.55 75.72 132.94 75.62
  C 132.59 75.17 132.33 74.74 131.89 74.43
  Q 121.51 67.05 113.15 58.46
  Q 111.68 56.95 110.69 54.39
  Q 110.08 52.78 110.10 50.51
  Q 110.13 48.12 109.84 45.77
  Q 109.55 32.77 109.89 28.62
  C 110.17 25.15 113.06 23.65 116.33 23.58
  Q 126.53 23.37 131.77 24.79
  Q 141.34 27.40 150.98 35.81
  C 154.60 38.96 157.20 42.96 159.52 47.28
  Q 164.53 56.59 165.66 64.37
  Q 166.66 71.29 165.72 80.75
  Z"
/>
<path fill="#cb2d4f" d="
  M 109.84 45.77
  Q 110.13 48.12 110.10 50.51
  Q 110.08 52.78 110.69 54.39
  Q 111.68 56.95 113.15 58.46
  Q 121.51 67.05 131.89 74.43
  C 132.33 74.74 132.59 75.17 132.94 75.62
  Q 129.55 83.48 121.64 88.18
  Q 116.79 91.06 111.23 93.14
  A 0.78 0.78 0.0 0 1 110.18 92.32
  Q 110.53 89.02 109.33 86.09
  Q 110.20 86.83 110.16 84.25
  Q 109.85 65.03 109.84 45.77
  Z"
/>
<circle fill="#412c6f" cx="378.55" cy="69.22" r="7.06"/>
<path fill="#412c6f" d="
  M 190.40 76.10
  C 187.13 76.70 184.23 80.24 184.27 83.83
  Q 184.41 100.34 184.32 117.58
  C 184.31 120.42 181.77 122.74 179.02 122.99
  C 175.23 123.33 172.14 120.98 172.17 117.12
  Q 172.33 98.96 172.22 84.40
  C 172.13 72.03 182.05 62.04 194.51 62.63
  C 197.23 62.76 199.97 62.30 202.72 62.77
  C 210.64 64.12 217.49 69.36 219.94 77.29
  Q 222.34 85.06 218.04 94.72
  C 217.28 96.43 216.15 97.24 214.78 98.38
  C 210.25 102.15 205.31 103.92 199.58 103.64
  C 196.82 103.50 193.99 104.27 191.40 103.01
  C 187.47 101.11 187.04 96.27 190.00 93.32
  C 192.23 91.10 195.12 90.84 198.08 91.29
  C 203.93 92.16 208.21 89.15 208.00 83.02
  Q 207.77 76.52 201.04 75.87
  Q 194.87 75.27 190.40 76.10
  Z"
/>
<path fill="#412c6f" d="
  M 280.42 78.46
  Q 285.81 78.23 290.87 78.20
  C 301.03 78.14 306.55 87.88 303.82 96.94
  Q 302.11 102.62 297.85 104.89
  C 292.76 107.61 283.61 108.56 282.47 100.78
  C 281.87 96.68 286.47 94.91 289.71 94.95
  Q 291.35 94.97 292.67 94.01
  A 1.16 1.16 0.0 0 0 292.47 92.02
  C 289.53 90.66 283.84 90.95 280.55 91.01
  Q 279.98 91.02 279.97 91.59
  C 279.83 99.59 277.93 110.14 289.81 110.52
  C 295.04 110.69 303.31 109.37 303.04 117.43
  Q 302.87 122.49 297.52 122.89
  Q 293.20 123.21 287.58 122.84
  Q 283.24 122.55 278.20 119.80
  C 268.91 114.73 267.01 105.51 267.17 95.09
  Q 267.38 82.54 267.17 69.65
  C 267.02 60.47 279.69 59.94 279.86 69.26
  Q 279.95 73.80 279.78 77.82
  Q 279.76 78.49 280.42 78.46
  Z"
/>
<path fill="#412c6f" d="
  M 338.60 88.27
  Q 341.46 88.24 344.80 88.37
  C 350.45 88.60 354.25 85.65 352.91 79.62
  C 352.17 76.25 348.62 75.57 345.65 75.56
  Q 334.74 75.52 323.87 75.46
  Q 320.44 75.44 318.24 74.14
  C 311.86 70.36 316.37 62.53 322.69 62.63
  Q 333.61 62.79 342.98 62.63
  C 350.87 62.50 356.31 63.96 361.51 69.32
  Q 364.34 72.24 365.44 76.49
  Q 367.93 86.09 361.96 94.27
  Q 361.60 94.76 362.08 95.14
  C 367.22 99.15 366.71 107.82 364.43 113.73
  Q 363.61 115.87 361.96 117.36
  Q 355.73 123.04 345.30 123.00
  Q 337.15 122.97 329.50 122.75
  C 324.90 122.62 322.07 120.98 318.20 119.14
  C 312.83 116.58 308.82 110.89 307.44 105.41
  Q 304.37 93.16 313.64 83.92
  C 317.76 79.82 323.94 77.73 329.76 78.76
  Q 338.34 80.28 337.94 87.58
  A 0.65 0.65 0.0 0 0 338.60 88.27
  Z
  M 329.31 110.10
  C 335.41 110.25 341.57 110.17 347.76 110.00
  C 351.70 109.89 355.62 105.37 351.57 102.21
  Q 350.38 101.28 348.81 101.26
  Q 340.54 101.19 330.92 101.16
  Q 329.22 101.15 328.12 100.01
  C 325.86 97.69 324.45 95.01 327.93 92.71
  Q 329.00 92.00 327.82 91.51
  Q 326.75 91.06 325.55 91.28
  Q 324.20 91.52 323.23 92.50
  Q 316.74 99.07 322.35 106.69
  Q 324.78 109.98 329.31 110.10
  Z"
/>
<path fill="#412c6f" d="
  M 433.19 92.97
  Q 428.83 88.29 423.95 92.23
  Q 421.86 93.90 421.84 96.69
  Q 421.74 106.72 421.73 116.80
  C 421.73 125.20 408.85 124.84 409.00 116.95
  Q 409.13 110.51 408.98 104.27
  Q 408.78 96.00 409.44 92.37
  C 410.74 85.21 417.03 79.24 424.18 77.96
  C 436.13 75.81 447.61 84.23 447.40 96.75
  Q 447.24 106.32 447.35 116.28
  C 447.45 125.40 434.65 124.91 434.59 116.27
  Q 434.53 107.02 434.56 97.82
  C 434.57 96.11 434.39 94.24 433.19 92.97
  Z"
/>
<path fill="#412c6f" d="
  M 235.91 91.37
  A 0.50 0.49 84.4 0 0 235.42 91.97
  L 235.94 94.54
  Q 236.11 95.36 236.95 95.33
  Q 244.28 95.09 250.19 95.43
  C 260.43 96.03 262.30 105.17 260.49 113.57
  C 259.22 119.46 251.91 122.80 246.49 122.85
  Q 237.72 122.92 229.21 122.67
  C 225.50 122.56 222.25 119.82 223.18 115.85
  C 224.69 109.46 229.57 110.38 235.78 110.43
  Q 241.95 110.48 247.25 110.34
  Q 248.54 110.31 249.33 108.93
  Q 249.70 108.29 248.38 107.35
  A 1.85 1.81 65.8 0 0 247.59 107.04
  C 239.13 105.85 231.96 108.87 225.63 101.07
  C 219.86 93.96 223.10 82.35 231.73 79.28
  Q 235.00 78.12 239.33 78.17
  Q 247.50 78.25 254.46 78.42
  C 258.22 78.51 260.54 81.40 260.45 85.05
  Q 260.30 91.49 253.25 91.45
  Q 244.50 91.40 235.91 91.37
  Z"
/>
<rect fill="#412c6f" x="-6.14" y="-22.07" transform="translate(396.38,100.96) rotate(0.1)" width="12.28" height="44.14" rx="5.92"/>
<rect fill="#412c6f" x="371.79" y="79.03" width="12.90" height="43.94" rx="6.24"/>
<path fill="#3696cb" d="
  M 109.38 148.22
  Q 98.99 148.37 96.24 148.15
  C 81.87 147.00 69.65 140.19 61.24 128.66
  Q 56.53 122.20 54.47 117.24
  Q 52.03 111.33 51.81 102.24
  Q 51.60 93.11 51.29 83.95
  Q 52.43 82.93 53.57 81.94
  C 58.89 77.35 65.23 82.40 69.66 86.12
  Q 79.00 93.97 81.98 95.97
  Q 87.72 99.81 93.00 104.32
  Q 102.01 112.01 108.26 117.74
  Q 108.64 118.08 108.65 118.59
  Q 108.71 120.11 109.04 121.57
  Q 109.43 123.31 109.43 124.49
  Q 109.40 136.34 109.38 148.22
  Z"
/>
<path fill="#d6293e" d="
  M 127.04 109.18
  Q 127.84 114.42 128.29 119.02
  Q 129.83 134.92 129.49 140.24
  Q 129.02 147.64 121.01 148.25
  Q 118.97 148.40 111.59 148.21
  L 110.64 97.91
  Q 110.60 95.61 112.38 97.08
  L 127.04 109.18
  Z"
/>
</svg>
